<?xml version="1.0" standalone="no"?>
<!DOCTYPE svg PUBLIC "-//W3C//DTD SVG 20010904//EN"
 "http://www.w3.org/TR/2001/REC-SVG-20010904/DTD/svg10.dtd">
<svg version="1.0" xmlns="http://www.w3.org/2000/svg"
 width="1123.000000pt" height="1123.000000pt" viewBox="0 0 1123.000000 1123.000000"
 preserveAspectRatio="xMidYMid meet">
<metadata>
Created by potrace 1.11, written by Peter Selinger 2001-2013
</metadata>
<g transform="translate(0.000000,1123.000000) scale(0.100000,-0.100000)"
fill="#000000" stroke="none">
<path d="M7718 9605 c-1 -1 -38 -6 -80 -9 -42 -4 -86 -9 -96 -11 -11 -2 -37
-6 -58 -10 -73 -11 -99 -16 -114 -20 -8 -2 -31 -7 -50 -10 -19 -3 -75 -17
-125 -31 -49 -14 -94 -26 -100 -28 -20 -4 -120 -38 -140 -46 -72 -30 -202 -82
-210 -84 -5 -1 -21 -8 -35 -16 -14 -8 -27 -15 -30 -15 -10 -2 -156 -77 -170
-88 -30 -23 -61 -77 -62 -107 -1 -19 8 -40 21 -54 24 -25 53 -34 171 -50 25
-3 56 -8 70 -11 35 -6 95 -14 165 -21 33 -3 76 -7 95 -9 147 -15 277 -20 555
-20 327 1 489 8 645 31 25 3 61 8 80 9 19 2 49 5 65 8 29 6 105 18 135 22 8 1
40 7 70 14 30 6 69 13 85 16 38 6 176 38 235 55 25 8 50 14 55 16 56 13 130
36 177 53 63 24 91 64 82 117 -5 28 -53 89 -62 79 -3 -3 -10 -1 -16 4 -6 5
-75 30 -154 55 -131 42 -167 52 -212 60 -8 2 -22 6 -30 9 -13 5 -80 22 -120
31 -8 2 -37 7 -63 10 -27 4 -59 9 -70 12 -47 9 -74 13 -130 19 -32 4 -68 9
-80 12 -24 6 -493 14 -499 8z"/>
<path d="M5328 9165 c-2 -2 -30 -5 -63 -9 -49 -5 -138 -23 -190 -40 -5 -1 -23
-7 -40 -11 -75 -20 -335 -165 -335 -186 0 -5 -5 -9 -10 -9 -18 0 -146 -122
-205 -195 -22 -28 -42 -52 -45 -55 -11 -11 -74 -130 -76 -145 -2 -5 -9 -32
-17 -58 -14 -44 -17 -240 -5 -287 55 -211 177 -322 488 -447 80 -32 119 -61
146 -109 16 -28 9 -121 -14 -174 -46 -109 -64 -256 -48 -390 9 -71 20 -110 67
-252 45 -134 56 -214 40 -276 -16 -56 -81 -124 -261 -267 -201 -159 -336 -301
-387 -405 -9 -19 -17 -37 -18 -40 0 -3 -3 -9 -6 -15 -3 -5 -7 -32 -8 -58 -5
-101 74 -191 179 -204 97 -11 146 15 225 122 54 73 222 235 295 285 12 8 41
30 64 47 22 18 45 33 49 33 7 0 20 9 52 38 7 6 18 12 24 12 6 0 11 5 11 10 0
6 4 10 8 10 4 0 57 29 117 65 60 36 117 65 125 65 9 0 24 -6 35 -14 11 -7 47
-28 80 -46 33 -18 80 -44 105 -58 25 -13 74 -40 110 -60 36 -19 72 -41 81 -48
8 -8 18 -14 22 -14 9 0 169 -101 193 -122 11 -10 25 -18 31 -18 6 0 13 -3 15
-7 2 -5 24 -25 50 -46 111 -89 180 -170 219 -257 49 -107 60 -145 85 -295 3
-16 7 -70 9 -120 5 -106 18 -171 48 -240 21 -50 83 -147 123 -195 85 -100 167
-194 177 -204 13 -14 47 -56 101 -128 41 -55 108 -178 126 -234 31 -91 13
-182 -46 -235 -41 -36 -142 -97 -259 -156 -55 -27 -111 -56 -125 -63 -14 -8
-27 -15 -30 -15 -15 -2 -123 -62 -175 -97 -138 -93 -218 -234 -217 -384 0
-166 97 -237 272 -199 33 7 155 54 275 105 17 8 35 14 40 15 24 6 394 183 405
195 7 7 43 29 60 37 18 8 229 151 246 167 6 6 31 26 55 45 74 59 272 262 327
336 28 39 56 75 62 82 5 7 10 17 10 23 0 5 3 10 8 10 4 0 18 21 32 47 13 27
27 50 30 53 9 8 76 152 95 202 l18 48 44 -43 c76 -73 87 -82 143 -124 48 -35
115 -76 130 -78 3 0 14 -6 25 -12 11 -6 22 -11 25 -11 3 0 25 -6 50 -12 73
-21 256 -18 315 5 99 38 155 72 230 144 116 108 184 237 201 381 24 196 -12
318 -135 451 -36 40 -81 91 -99 114 l-33 43 32 78 c17 44 33 90 35 103 3 12
11 51 19 85 44 195 49 440 14 640 -20 113 -77 318 -99 358 -6 10 -10 22 -10
28 0 12 -31 83 -73 165 -109 216 -295 430 -491 565 -28 19 -53 37 -56 40 -9 9
-65 40 -120 67 -30 14 -56 30 -58 35 -2 4 -12 8 -21 8 -10 0 -21 3 -24 7 -6 6
-47 21 -152 58 -39 14 -145 41 -195 51 -14 2 -60 11 -104 20 -43 8 -81 13 -84
10 -3 -3 -10 -2 -16 3 -6 5 -30 11 -54 15 -24 3 -47 8 -52 11 -5 3 -21 7 -37
9 -139 19 -558 205 -753 334 -95 63 -176 132 -156 132 5 0 3 6 -3 14 -7 8 -13
68 -16 152 -2 77 -6 153 -8 170 -5 36 -44 157 -61 188 -39 72 -122 181 -186
246 -40 39 -172 141 -230 176 -88 54 -218 115 -272 128 -15 3 -40 11 -55 18
-15 6 -34 12 -42 14 -7 1 -34 7 -60 13 -43 10 -64 14 -136 26 -33 6 -223 14
-227 10z m117 -314 c66 -18 123 -81 120 -131 -5 -107 -175 -177 -305 -124 -52
21 -69 36 -96 82 -17 29 -17 35 -4 74 32 90 159 134 285 99z"/>
<path d="M2935 8799 c-32 -9 -74 -51 -137 -138 -23 -31 -45 -57 -50 -59 -4 -2
-8 -10 -8 -18 0 -8 -4 -14 -10 -14 -5 0 -10 -5 -10 -10 0 -6 -16 -33 -35 -60
-19 -28 -32 -50 -28 -50 5 0 3 -4 -4 -8 -19 -12 -147 -278 -186 -387 -38 -106
-73 -220 -81 -270 -3 -16 -8 -39 -10 -50 -2 -11 -7 -40 -11 -65 -4 -25 -9 -54
-11 -65 -11 -56 -23 -340 -14 -340 1 0 3 -18 5 -40 5 -59 12 -99 26 -147 15
-53 16 -56 18 -67 0 -5 14 -13 29 -19 59 -20 114 32 173 166 7 17 17 32 21 32
5 0 8 5 8 11 0 7 18 49 40 95 47 99 111 256 152 374 16 47 32 92 35 100 3 8 7
20 9 25 19 69 46 172 48 180 1 6 4 15 8 20 5 8 15 46 24 90 1 6 8 30 15 55 7
25 14 50 15 55 1 6 3 13 4 18 6 17 21 98 26 132 1 11 3 21 4 23 8 9 23 152 25
237 3 152 -25 213 -90 194z"/>
<path d="M6745 8786 c-42 -18 -57 -39 -51 -72 5 -28 46 -74 66 -74 5 0 10 -4
10 -8 0 -5 18 -14 40 -21 21 -6 42 -16 45 -21 11 -19 416 -212 630 -301 66
-28 129 -54 140 -59 36 -17 238 -91 350 -130 136 -47 430 -137 472 -145 10 -2
18 -4 18 -5 0 -1 7 -3 50 -14 11 -2 40 -9 65 -16 45 -11 157 -37 195 -45 11
-3 34 -8 50 -12 17 -3 39 -8 50 -10 11 -1 43 -7 70 -13 56 -12 67 -14 145 -24
85 -12 124 11 136 79 5 27 -31 67 -104 117 -26 17 -49 34 -52 37 -12 14 -222
151 -231 151 -5 0 -9 5 -9 10 0 6 -5 10 -11 10 -6 0 -30 12 -53 28 -22 15 -54
34 -71 42 -16 8 -32 17 -35 20 -22 22 -307 163 -445 220 -11 5 -46 20 -77 34
-32 14 -58 22 -58 19 0 -3 -6 -1 -12 4 -11 9 -51 22 -75 24 -5 1 -17 6 -27 11
-57 31 -425 123 -531 133 -16 2 -30 4 -30 5 0 1 -9 3 -100 15 -158 21 -519 28
-560 11z"/>
<path d="M3960 8642 c-19 -9 -39 -23 -43 -30 -5 -7 -12 -10 -18 -7 -5 4 -9 1
-9 -4 0 -6 -5 -11 -10 -11 -6 0 -16 -5 -23 -10 -7 -6 -30 -24 -52 -41 -93 -71
-114 -90 -229 -205 -153 -153 -167 -168 -260 -287 -75 -97 -181 -267 -224
-358 -30 -67 -92 -225 -97 -249 -2 -11 -7 -25 -10 -30 -3 -5 -8 -20 -10 -32
-3 -13 -12 -52 -20 -88 -9 -36 -18 -75 -20 -87 -7 -32 39 -67 68 -51 21 11
318 304 372 368 48 55 128 153 155 189 14 18 30 38 35 44 20 23 112 153 167
237 147 225 341 593 331 630 -10 37 -52 46 -103 22z"/>
<path d="M2938 6975 c-2 -2 -23 -6 -48 -9 -40 -5 -94 -15 -168 -31 -107 -24
-405 -194 -508 -290 -6 -5 -33 -28 -60 -50 -125 -104 -217 -217 -271 -335 -22
-48 -71 -185 -79 -222 -10 -44 -11 -229 -2 -276 14 -72 29 -135 38 -157 37
-89 65 -144 103 -202 47 -73 152 -183 174 -183 7 0 13 -4 13 -10 0 -5 4 -10 9
-10 17 0 127 -70 165 -105 36 -32 38 -37 31 -72 -4 -21 -9 -47 -11 -58 -1 -11
-3 -20 -4 -20 -4 0 -6 -81 -2 -89 3 -4 6 -28 8 -52 10 -122 94 -262 268 -449
26 -27 57 -61 69 -75 99 -113 127 -149 127 -164 0 -10 -22 -55 -49 -100 -112
-187 -130 -237 -126 -333 3 -73 16 -147 27 -160 6 -7 7 -13 4 -13 -4 0 5 -24
21 -52 101 -190 291 -278 448 -209 61 27 107 76 144 155 25 52 50 108 56 126
1 3 7 18 13 33 7 16 22 52 33 80 74 181 130 272 204 332 58 48 117 53 160 14
57 -51 117 -115 133 -141 9 -16 19 -28 23 -28 4 0 14 -11 22 -23 15 -23 14
-25 -44 -67 -113 -82 -149 -173 -125 -321 14 -92 116 -164 341 -242 55 -19
103 -35 108 -36 4 0 8 -1 10 -2 1 0 9 -2 17 -4 8 -2 51 -12 95 -24 80 -20 137
-31 185 -37 14 -1 25 -3 25 -4 0 -5 159 -22 245 -26 47 -2 95 -6 108 -8 12 -3
22 -2 22 2 0 4 42 7 93 8 86 0 223 10 271 20 12 2 39 6 61 8 22 3 47 7 55 10
8 3 31 7 50 10 19 3 56 12 83 20 26 8 47 12 47 9 0 -3 7 0 15 7 8 6 19 9 25 5
5 -3 10 -2 10 2 0 5 8 9 18 10 63 5 269 103 466 222 61 37 122 74 136 82 14 8
27 16 30 19 8 9 170 110 176 110 3 0 12 6 19 13 32 28 43 35 63 41 12 4 22 12
22 17 0 5 5 9 10 9 6 0 32 15 59 34 27 19 52 32 55 29 3 -4 6 -1 6 5 0 7 7 12
15 12 8 0 15 5 15 10 0 6 5 10 10 10 6 0 29 12 53 27 23 15 51 33 62 39 11 6
36 21 55 32 19 12 42 25 50 29 8 4 24 15 34 25 11 10 23 18 26 18 13 0 53 85
56 118 1 20 -4 57 -12 83 -15 49 -97 181 -146 234 -15 17 -28 33 -28 36 0 3
-9 17 -21 30 -12 13 -40 47 -64 74 -24 28 -55 64 -70 80 -85 98 -160 213 -216
336 -14 29 -28 132 -30 209 -4 135 -69 338 -143 445 -28 40 -150 163 -206 207
-69 54 -149 108 -160 108 -5 0 -10 4 -10 8 0 5 -17 17 -37 28 -21 10 -42 22
-48 27 -20 15 -86 57 -89 57 -2 0 -63 36 -135 80 -131 79 -144 83 -181 54 -8
-7 -89 -68 -180 -136 -90 -67 -172 -129 -181 -138 -8 -8 -35 -31 -59 -50 -49
-39 -148 -131 -255 -236 -87 -86 -150 -119 -220 -116 -55 2 -118 21 -144 44
-9 8 -24 17 -32 20 -19 7 -88 107 -92 133 -1 11 -5 25 -9 30 -10 17 0 108 15
145 27 63 113 173 203 262 110 107 164 158 170 158 2 0 14 9 26 20 13 10 61
50 107 87 64 51 88 77 97 106 13 36 12 40 -10 62 -30 30 -77 39 -169 31 -39
-3 -80 -6 -90 -7 -26 0 -231 -72 -362 -126 -60 -25 -138 -56 -173 -69 l-63
-24 -15 38 c-26 64 -110 222 -123 232 -4 3 -15 18 -24 33 -53 83 -199 208
-304 261 -112 56 -261 83 -468 84 -79 0 -145 -1 -147 -3z m-166 -555 c21 -11
46 -28 57 -39 22 -22 42 -86 36 -116 -2 -11 -4 -26 -4 -32 -2 -26 -71 -90
-109 -101 -90 -27 -190 -2 -233 60 -26 37 -36 108 -19 147 17 42 62 78 117 94
57 17 104 13 155 -13z"/>
</g>
</svg>
